<svg id="svg" version="1.1" xmlns="http://www.w3.org/2000/svg" xmlns:xlink="http://www.w3.org/1999/xlink" width="400" height="263.01675977653633" viewBox="0, 0, 400,263.01675977653633"><g id="svgg">
<path id="path0" d="M86.145 61.023 C 68.054 62.173,49.330 65.699,47.073 68.380 C 45.374 70.400,46.419 74.860,48.591 74.860 C 49.510 74.860,49.448 74.965,40.494 88.649 C 25.982 110.827,15.627 130.722,7.486 152.067 C 3.522 162.462,3.396 164.138,6.361 167.020 C 8.480 169.080,9.852 168.996,14.736 166.509 C 26.115 160.715,36.781 157.890,50.279 157.095 C 56.963 156.701,58.233 155.890,57.606 152.413 C 56.625 146.970,41.213 148.069,20.335 155.071 C 17.447 156.039,15.043 156.792,14.993 156.742 C 13.916 155.679,27.483 126.079,33.430 116.515 L 34.416 114.930 36.370 114.335 C 42.248 112.545,51.587 111.122,63.017 110.276 C 70.990 109.685,72.209 109.112,72.238 105.943 C 72.282 101.038,67.732 100.806,46.424 104.622 C 42.891 105.254,39.944 105.717,39.877 105.650 C 39.523 105.296,51.299 86.708,56.222 79.850 C 58.438 76.763,58.874 75.571,58.212 74.413 C 57.748 73.601,57.716 73.629,59.721 73.112 C 67.924 70.999,78.230 69.778,89.944 69.530 C 98.643 69.346,99.437 69.092,100.736 66.079 C 102.626 61.697,98.428 60.242,86.145 61.023 M206.034 65.147 C 197.792 66.399,190.534 69.740,183.666 75.443 C 178.263 79.929,177.052 82.795,179.641 84.973 C 181.203 86.288,182.784 85.881,186.159 83.299 C 188.520 81.493,190.615 80.140,190.615 80.420 C 190.615 80.535,188.347 84.787,185.575 89.868 C 168.337 121.468,153.023 157.717,152.972 167.039 C 152.919 176.765,166.144 177.673,181.229 168.978 C 209.392 152.747,235.165 114.083,235.180 88.045 C 235.189 72.111,223.036 62.563,206.034 65.147 M218.436 73.176 C 226.744 75.366,229.134 83.551,225.583 97.654 C 219.172 123.106,192.403 157.205,172.427 165.364 C 164.767 168.493,162.062 166.938,163.675 160.335 C 166.891 147.165,181.389 115.018,196.427 87.709 C 201.059 79.300,201.205 78.672,198.901 77.089 L 198.137 76.564 199.124 76.137 C 206.155 73.095,213.725 71.934,218.436 73.176 M97.877 112.104 C 88.281 113.616,79.326 119.656,76.454 126.556 C 74.246 131.859,75.464 137.333,80.527 144.863 C 83.618 149.462,84.670 152.112,84.381 154.573 C 83.544 161.693,74.172 162.169,70.573 155.274 L 69.832 153.855 69.842 150.615 C 69.852 147.167,70.110 146.054,71.748 142.389 C 73.136 139.286,69.701 138.690,66.895 141.548 C 62.605 145.916,61.547 154.721,64.620 160.486 C 71.081 172.609,91.844 167.896,91.844 154.306 C 91.844 151.066,90.643 147.921,87.669 143.374 C 83.471 136.953,82.368 133.211,83.552 129.406 C 86.207 120.873,103.861 114.304,103.424 122.011 C 103.228 125.473,100.091 127.755,93.423 129.288 C 89.461 130.199,88.163 131.576,88.911 134.075 C 90.028 137.804,100.536 135.069,106.575 129.477 C 112.316 124.162,113.233 115.643,108.331 113.159 C 106.319 112.140,101.036 111.607,97.877 112.104 M251.796 113.951 C 232.906 119.046,215.420 157.954,229.019 164.632 C 234.059 167.108,239.951 163.295,245.805 153.769 C 247.321 151.303,247.496 151.125,247.280 152.274 C 246.069 158.730,248.573 165.231,253.062 167.286 C 259.799 170.371,264.158 164.147,257.564 160.857 C 251.549 157.854,252.331 149.345,260.041 133.914 C 263.030 127.930,263.200 127.282,262.247 125.508 L 261.665 124.424 262.263 122.715 C 264.504 116.315,259.272 111.934,251.796 113.951 M335.196 115.448 C 325.076 117.386,309.483 135.944,306.316 149.817 C 303.538 161.984,311.802 169.487,323.049 165.010 C 332.788 161.133,348.220 144.210,345.626 140.252 C 344.334 138.280,342.975 138.956,339.527 143.284 C 328.690 156.890,318.339 162.451,314.538 156.708 C 310.476 150.570,324.573 126.551,334.059 123.449 C 338.048 122.144,336.896 127.222,332.127 131.964 C 330.406 133.675,329.911 134.756,330.184 136.208 C 330.669 138.795,333.908 138.304,336.836 135.200 C 345.491 126.025,344.465 113.673,335.196 115.448 M378.282 116.099 C 368.964 118.182,355.783 131.725,351.975 143.128 C 343.734 167.812,366.849 172.019,388.622 149.797 C 394.625 143.670,396.210 140.060,393.370 138.980 C 392.032 138.471,391.022 139.202,387.052 143.553 C 382.032 149.056,377.760 152.561,373.520 154.657 C 365.788 158.479,358.683 156.641,358.575 150.791 L 358.547 149.272 360.670 148.528 C 372.943 144.229,383.167 134.576,386.035 124.581 C 387.735 118.659,384.188 114.778,378.282 116.099 M302.284 119.871 C 298.434 121.455,291.573 126.859,283.855 134.388 C 282.349 135.856,281.064 137.004,280.999 136.939 C 280.831 136.771,283.097 132.892,285.198 129.751 C 288.687 124.532,289.123 122.234,286.919 120.664 C 283.729 118.393,280.229 122.798,270.623 141.173 C 262.461 156.787,260.938 161.541,263.332 163.935 C 265.609 166.213,268.320 164.580,271.377 159.088 C 276.894 149.180,282.477 142.243,288.667 137.606 C 290.728 136.062,290.813 136.099,289.662 138.037 C 282.131 150.722,280.510 163.695,285.573 170.765 C 289.273 175.932,295.373 173.413,292.476 167.914 C 288.841 161.016,289.311 154.133,294.079 144.448 C 296.368 139.799,299.435 135.285,304.780 128.698 C 309.891 122.399,308.458 117.332,302.284 119.871 M125.995 120.737 C 119.157 124.171,109.575 138.537,107.061 149.122 C 104.852 158.425,107.505 164.956,113.493 164.956 C 118.035 164.956,122.022 161.804,127.951 153.527 L 128.826 152.306 129.093 154.728 C 129.785 161.020,132.137 165.058,136.224 166.971 C 143.172 170.222,147.624 164.237,141.192 160.290 C 135.851 157.011,134.276 151.054,136.825 143.772 C 137.413 142.095,138.065 140.723,141.397 134.161 C 145.023 127.021,145.504 124.695,143.739 122.846 C 140.842 119.809,136.874 123.581,133.171 132.892 C 127.320 147.602,117.872 159.375,114.569 156.072 C 111.560 153.064,117.772 139.989,128.332 127.104 C 130.880 123.995,131.271 122.599,129.986 121.197 C 128.998 120.119,127.556 119.952,125.995 120.737 M255.005 122.565 C 255.710 123.032,257.207 124.844,257.207 125.231 C 257.207 125.299,256.743 125.781,256.177 126.303 C 254.878 127.500,253.890 129.185,250.241 136.425 C 244.018 148.769,240.488 153.934,237.107 155.639 C 230.486 158.979,230.035 149.445,236.274 137.989 C 242.887 125.845,250.495 119.581,255.005 122.565 M378.498 124.370 C 382.121 126.908,371.103 139.086,362.126 142.465 C 360.159 143.205,360.164 143.233,361.657 140.170 C 366.162 130.922,375.433 122.224,378.498 124.370 " stroke="none" fill="#050505" fill-rule="evenodd">
</path>
<path id="path1" d="M0.000 131.508 L 0.000 263.017 200.000 263.017 L 400.000 263.017 400.000 131.508 L 400.000 0.000 200.000 0.000 L 0.000 0.000 0.000 131.508 M169.669 26.244 C 177.491 26.636,186.572 30.346,192.961 35.759 C 193.944 36.592,198.620 40.861,203.352 45.244 L 211.955 53.215 212.849 53.070 C 215.699 52.606,216.721 52.523,219.553 52.520 C 231.616 52.508,242.973 58.529,249.776 68.545 C 251.219 70.668,251.679 70.944,257.880 73.407 C 269.293 77.938,277.722 79.063,298.380 78.810 L 309.050 78.680 309.050 98.446 L 309.050 118.212 295.140 118.212 C 282.558 118.212,276.437 118.037,272.471 117.566 C 271.512 117.452,271.130 117.474,271.228 117.639 C 271.353 117.851,277.759 127.395,277.877 127.547 C 277.904 127.581,278.536 126.673,279.283 125.528 C 282.675 120.332,284.991 118.902,287.065 120.723 C 289.306 122.691,289.024 124.170,285.324 129.832 C 282.278 134.494,282.204 134.628,282.497 134.921 C 282.682 135.106,283.484 134.480,285.563 132.527 C 298.490 120.386,305.794 116.492,307.712 120.718 C 308.855 123.236,308.151 124.785,302.947 131.208 C 298.303 136.940,294.245 143.664,292.280 148.882 L 291.544 150.836 294.356 156.368 C 295.902 159.410,297.890 163.458,298.775 165.363 C 299.659 167.268,301.516 171.190,302.900 174.078 C 307.610 183.902,308.791 187.590,308.991 193.102 C 309.358 203.228,305.210 212.049,297.170 218.240 C 294.473 220.316,271.851 233.662,269.411 234.616 C 264.578 236.506,260.233 237.101,254.247 236.691 C 246.210 236.142,242.918 234.838,234.622 228.920 C 215.834 215.518,209.099 210.102,201.866 202.582 L 198.283 198.857 196.979 200.490 C 189.389 209.995,183.515 215.335,168.590 226.296 C 158.658 233.591,157.873 234.077,153.871 235.421 C 147.486 237.564,137.726 237.134,131.844 234.450 C 129.497 233.379,111.450 222.294,109.076 220.466 C 102.388 215.314,98.465 207.177,98.456 198.436 C 98.449 192.298,99.510 189.261,107.828 171.620 C 108.900 169.346,110.057 166.867,110.400 166.111 L 111.023 164.736 109.941 164.063 C 105.893 161.547,104.989 154.814,107.602 146.635 C 107.904 145.689,108.152 144.841,108.154 144.749 C 108.155 144.656,105.944 144.581,103.240 144.581 L 98.324 144.581 98.324 139.665 C 98.324 136.961,98.236 134.749,98.129 134.749 C 98.021 134.749,97.511 134.898,96.995 135.080 C 91.546 137.002,87.810 135.693,88.740 132.186 C 89.219 130.377,89.913 129.967,94.213 128.947 C 95.798 128.571,97.372 128.152,97.709 128.015 L 98.324 127.767 98.324 123.299 L 98.324 118.832 97.263 118.986 C 92.853 119.624,85.939 124.453,84.259 128.069 C 82.217 132.460,82.937 135.563,87.770 143.203 C 91.636 149.314,92.743 153.235,91.727 157.216 C 88.607 169.436,69.942 171.481,64.385 160.210 C 60.541 152.414,64.178 139.665,70.246 139.665 C 72.359 139.665,72.701 140.797,71.436 143.600 C 69.963 146.862,69.398 150.791,70.039 153.306 C 72.155 161.594,83.502 162.499,84.178 154.433 C 84.404 151.731,83.625 149.743,80.527 145.115 C 75.646 137.826,74.241 132.223,76.033 127.188 C 78.424 120.471,87.217 113.998,96.323 112.252 L 98.324 111.869 98.324 108.475 L 98.324 105.081 105.084 105.196 C 114.920 105.362,124.247 104.835,129.832 103.795 C 131.867 103.417,136.676 102.192,137.133 101.936 C 137.324 101.830,136.474 100.366,134.384 97.204 C 126.737 85.632,124.985 80.745,124.753 70.346 C 124.480 58.076,127.326 49.590,134.749 40.545 C 141.879 31.857,156.933 25.035,166.704 26.065 C 167.011 26.097,168.345 26.178,169.669 26.244 M163.687 39.343 C 148.414 40.574,137.505 53.402,137.949 69.609 C 138.178 77.977,139.170 80.652,145.878 90.985 C 150.150 97.565,151.226 99.157,159.673 111.397 C 162.643 115.698,165.758 120.251,166.597 121.515 C 167.435 122.778,168.198 123.733,168.291 123.638 C 168.385 123.542,169.167 121.941,170.028 120.080 C 170.890 118.219,172.954 113.914,174.614 110.513 L 177.632 104.330 176.786 102.389 C 176.320 101.321,175.633 99.846,175.259 99.111 L 174.579 97.775 175.837 96.788 C 177.570 95.429,181.332 92.955,183.193 91.950 L 184.738 91.115 187.544 85.949 C 189.088 83.107,190.317 80.747,190.275 80.705 C 190.178 80.606,188.518 81.736,186.329 83.391 C 184.050 85.114,182.699 85.810,181.632 85.810 C 178.791 85.810,177.233 82.636,178.883 80.211 C 179.251 79.670,179.643 79.082,179.752 78.906 C 180.339 77.962,172.026 82.988,168.640 85.624 C 166.063 87.630,166.241 87.572,165.172 86.740 C 164.724 86.392,162.821 85.076,160.944 83.815 C 148.599 75.530,144.544 70.946,144.519 65.251 C 144.470 54.114,157.074 44.351,169.304 46.052 C 175.543 46.920,177.290 48.064,189.352 59.182 L 197.809 66.977 199.947 66.352 C 201.123 66.007,202.772 65.603,203.612 65.453 C 204.452 65.303,205.140 65.100,205.140 65.003 C 205.140 64.859,191.863 52.455,185.584 46.733 C 179.649 41.324,171.834 38.687,163.687 39.343 M96.648 60.792 C 100.636 61.364,102.150 63.539,100.653 66.543 C 99.333 69.192,98.444 69.465,90.726 69.590 C 80.349 69.757,68.411 71.115,60.782 72.997 C 58.018 73.679,57.988 73.699,58.428 74.543 C 59.046 75.728,58.562 76.902,55.965 80.527 C 51.426 86.861,39.691 105.292,40.027 105.558 C 40.073 105.596,42.475 105.193,45.363 104.664 C 66.832 100.730,72.064 100.904,72.360 105.560 C 72.591 109.184,71.549 109.729,63.128 110.392 C 51.011 111.346,42.339 112.681,36.318 114.517 L 34.456 115.085 33.233 117.152 C 27.243 127.266,19.416 143.897,16.183 153.378 C 14.939 157.025,14.848 156.847,17.478 155.895 C 37.303 148.718,55.102 146.769,57.486 151.513 C 59.194 154.913,57.280 156.796,51.798 157.109 C 36.850 157.964,27.166 160.485,14.455 166.832 C 9.640 169.236,8.360 169.245,6.073 166.888 C 3.106 163.831,3.382 161.891,8.681 148.581 C 16.768 128.264,26.478 109.817,39.840 89.385 C 47.051 78.360,49.017 75.222,48.763 75.137 C 47.267 74.638,46.199 73.200,46.078 71.520 C 45.856 68.460,47.107 67.282,52.112 65.834 C 62.109 62.944,89.795 59.809,96.648 60.792 M220.782 66.002 C 230.075 69.351,235.389 77.525,235.390 88.472 L 235.390 92.139 239.874 94.317 C 256.251 102.273,267.004 104.762,285.866 104.965 L 295.866 105.073 295.866 98.489 L 295.866 91.905 287.542 91.774 C 268.975 91.482,259.563 89.282,244.022 81.605 L 241.453 80.335 240.534 78.620 C 236.505 71.094,229.210 66.180,221.229 65.613 L 219.330 65.479 220.782 66.002 M210.615 72.989 C 206.688 73.582,198.641 76.021,198.665 76.610 C 198.669 76.692,199.016 77.011,199.438 77.318 C 201.112 78.539,201.023 79.364,198.749 83.720 C 197.962 85.228,197.318 86.500,197.318 86.547 C 197.318 86.594,198.239 86.455,199.364 86.239 C 207.662 84.645,217.315 85.216,225.084 87.763 L 227.039 88.403 227.039 86.466 C 227.039 79.317,224.257 74.929,218.742 73.379 C 217.558 73.047,211.997 72.779,210.615 72.989 M234.084 99.050 C 233.953 99.446,232.819 103.700,232.688 104.286 C 232.614 104.618,232.992 105.439,233.871 106.856 C 236.278 110.738,238.649 116.467,238.988 119.218 C 239.064 119.832,239.178 120.671,239.241 121.081 L 239.357 121.827 240.517 120.738 C 244.218 117.262,247.335 115.321,251.580 113.847 C 251.925 113.728,251.600 113.229,249.402 110.503 C 245.842 106.087,243.046 102.793,242.857 102.793 C 242.744 102.793,240.783 101.888,238.499 100.782 C 233.862 98.537,234.208 98.673,234.084 99.050 M147.598 112.198 C 137.957 116.020,129.139 117.685,116.175 118.130 L 111.792 118.280 111.650 119.956 C 111.572 120.878,111.508 123.829,111.508 126.514 L 111.508 131.397 113.367 131.397 L 115.226 131.397 117.030 128.985 C 121.658 122.799,126.704 119.196,129.098 120.370 C 131.853 121.721,131.462 123.600,127.405 128.496 C 125.163 131.202,125.119 131.125,128.664 130.659 C 134.212 129.929,134.158 129.947,134.734 128.753 C 138.029 121.929,142.496 119.716,144.563 123.885 C 145.042 124.851,145.079 125.100,144.881 126.063 C 144.759 126.661,144.716 127.151,144.787 127.151 C 145.599 127.151,156.200 123.179,157.054 122.555 C 157.119 122.507,152.016 113.970,150.814 112.115 C 150.166 111.116,150.337 111.112,147.598 112.198 M340.000 115.913 C 345.685 118.888,342.349 132.330,334.709 137.232 C 330.577 139.884,327.954 135.166,331.829 132.052 C 335.484 129.114,337.652 123.352,335.101 123.352 C 327.635 123.352,311.209 148.775,314.193 155.712 C 317.278 162.882,327.974 157.524,339.549 143.011 C 342.142 139.760,342.772 139.218,343.950 139.218 C 352.546 139.218,333.723 161.808,322.011 165.547 C 314.063 168.084,307.568 164.952,305.916 157.787 C 302.355 142.345,328.689 109.994,340.000 115.913 M383.352 116.288 C 391.839 120.307,382.213 138.039,367.324 145.814 C 365.172 146.938,360.651 148.802,359.274 149.134 C 357.357 149.596,359.219 154.392,361.820 155.690 C 368.177 158.865,377.236 154.194,388.256 142.058 C 391.298 138.707,392.818 138.035,394.207 139.424 C 395.979 141.196,393.935 144.832,387.779 150.854 C 367.673 170.526,346.501 168.467,350.684 147.246 C 353.815 131.359,374.261 111.983,383.352 116.288 M180.352 119.281 C 179.562 120.967,177.838 124.752,176.520 127.693 L 174.124 133.039 175.259 134.843 C 177.735 138.782,179.893 142.759,183.089 149.274 C 184.928 153.022,186.466 156.129,186.507 156.177 C 186.881 156.619,196.514 146.917,200.841 141.741 L 201.794 140.601 200.341 139.788 C 194.393 136.462,186.741 127.048,183.005 118.459 C 182.464 117.217,181.970 116.204,181.905 116.209 C 181.841 116.213,181.142 117.595,180.352 119.281 M250.388 122.413 C 239.531 126.167,225.741 156.257,234.905 156.196 C 238.770 156.170,243.115 150.418,250.641 135.360 C 253.663 129.313,254.572 127.761,255.936 126.317 L 257.040 125.148 256.647 124.529 C 255.154 122.181,253.084 121.481,250.388 122.413 M375.419 124.822 C 370.648 127.041,364.949 133.538,361.541 140.639 C 360.412 142.992,360.405 142.982,362.597 142.116 C 366.846 140.439,369.607 138.536,373.227 134.789 C 379.670 128.120,380.963 122.243,375.419 124.822 M149.803 127.214 C 146.756 131.150,142.494 137.124,139.247 142.009 L 135.981 146.923 135.903 149.271 C 135.725 154.649,137.272 157.735,141.432 160.296 C 148.166 164.441,142.962 170.472,135.762 166.869 C 133.206 165.590,131.036 162.912,129.948 159.695 C 129.339 157.893,129.615 157.649,127.206 162.123 C 124.001 168.076,119.682 176.945,114.745 187.709 C 112.673 192.225,111.508 196.136,111.508 198.573 L 111.508 199.623 112.026 198.644 C 114.122 194.680,121.870 196.491,134.190 203.825 C 142.609 208.837,147.348 213.013,148.291 216.250 C 149.228 219.466,148.433 222.154,146.228 223.227 L 145.370 223.644 146.484 223.532 C 150.755 223.102,151.378 222.745,163.128 214.005 C 171.432 207.828,174.284 205.432,179.620 200.145 L 183.263 196.536 183.129 194.860 C 182.388 185.624,181.593 180.846,179.629 173.825 L 178.714 170.555 176.584 171.544 C 166.937 176.021,158.540 176.369,154.919 172.440 C 151.498 168.728,152.020 164.814,158.118 148.453 L 160.214 142.827 159.674 141.637 C 159.314 140.845,159.048 139.661,158.879 138.101 C 158.391 133.593,155.949 128.853,152.663 126.036 C 151.366 124.925,151.672 124.799,149.803 127.214 M262.362 129.553 C 262.199 130.014,261.469 131.475,260.741 132.800 C 256.778 140.008,253.824 148.834,253.769 153.631 C 253.723 157.599,254.529 159.070,257.697 160.800 C 260.259 162.199,260.782 162.864,260.782 164.718 C 260.782 169.279,253.759 169.501,249.920 165.060 C 247.616 162.395,246.825 159.727,246.979 155.135 L 247.086 151.947 246.313 153.236 C 240.966 162.159,235.900 166.169,230.983 165.369 C 223.135 164.091,221.726 152.462,227.807 139.150 C 228.245 138.190,228.603 137.383,228.603 137.356 C 228.603 137.330,227.422 137.890,225.978 138.603 C 221.111 141.004,217.473 142.183,213.647 142.598 L 211.211 142.862 208.991 145.453 C 204.150 151.104,198.916 156.157,192.905 160.980 C 189.822 163.454,189.969 163.196,190.756 164.756 C 197.003 177.142,208.048 191.314,218.773 200.705 C 223.743 205.057,244.622 220.306,247.754 221.872 C 249.478 222.734,251.919 223.399,253.966 223.563 C 255.496 223.686,255.513 223.682,254.714 223.372 C 250.689 221.809,250.205 216.346,253.684 211.739 C 257.416 206.797,273.584 196.819,283.387 193.406 C 289.840 191.160,293.676 191.544,295.320 194.600 L 295.881 195.642 295.789 193.408 C 295.718 191.673,295.535 190.673,294.973 188.939 C 293.507 184.418,288.439 173.494,287.532 172.900 C 285.277 171.422,283.524 168.032,282.781 163.713 C 282.421 161.616,281.157 158.887,277.737 152.819 L 276.596 150.795 276.168 151.431 C 275.247 152.800,272.397 157.544,271.205 159.694 C 268.634 164.328,266.129 165.927,263.730 164.464 C 260.763 162.655,261.712 158.565,268.029 145.949 L 270.645 140.726 269.597 139.022 C 267.876 136.222,262.914 128.720,262.782 128.717 C 262.715 128.716,262.526 129.092,262.362 129.553 M288.583 137.832 C 285.442 140.257,285.528 140.109,286.399 141.597 L 286.989 142.602 288.034 140.631 C 288.608 139.546,289.350 138.232,289.682 137.709 C 290.444 136.509,290.272 136.528,288.583 137.832 M119.144 144.524 L 116.836 144.597 116.209 145.986 C 113.127 152.806,113.424 159.762,116.557 154.135 C 117.258 152.875,118.773 150.214,119.922 148.223 C 122.143 144.374,122.163 144.332,121.732 144.405 C 121.578 144.431,120.414 144.484,119.144 144.524 M166.916 150.785 C 163.465 159.851,162.624 164.456,164.142 165.975 L 164.933 166.765 166.880 166.645 C 169.087 166.510,171.579 165.739,174.346 164.336 L 176.067 163.464 175.331 161.788 C 172.530 155.403,169.698 150.674,168.227 149.923 L 167.404 149.503 166.916 150.785 " stroke="none" fill="#fbfbfb" fill-rule="evenodd">
</path>
<path id="path2" d="M163.352 26.169 C 148.969 27.006,135.698 35.948,129.062 49.274 C 125.547 56.332,124.550 61.209,124.753 70.346 C 124.985 80.745,126.737 85.632,134.384 97.204 C 136.474 100.366,137.324 101.830,137.133 101.936 C 136.676 102.192,131.867 103.417,129.832 103.795 C 124.247 104.835,114.920 105.362,105.084 105.196 L 98.324 105.081 98.324 108.477 L 98.324 111.872 100.861 111.775 C 107.092 111.537,111.024 113.621,111.448 117.386 L 111.554 118.324 115.609 118.170 C 129.166 117.657,136.756 116.275,146.883 112.474 C 150.054 111.284,150.204 111.250,150.501 111.650 C 151.057 112.400,157.127 122.501,157.054 122.554 C 156.383 123.047,147.794 126.335,145.673 126.912 L 144.642 127.192 143.908 129.127 C 143.504 130.191,142.217 132.922,141.048 135.196 C 137.814 141.483,137.433 142.299,136.731 144.446 C 135.890 147.018,135.993 147.035,137.539 144.586 C 140.397 140.056,148.051 129.330,151.226 125.404 C 151.807 124.685,154.996 128.140,156.862 131.508 C 158.068 133.685,158.584 135.372,158.879 138.101 C 159.053 139.700,159.312 140.838,159.694 141.676 L 160.255 142.905 162.109 138.324 C 163.886 133.934,167.513 125.504,168.200 124.165 C 168.381 123.814,168.433 123.585,168.317 123.657 C 168.201 123.729,167.423 122.760,166.589 121.503 C 165.754 120.246,162.643 115.698,159.673 111.397 C 139.025 81.480,138.232 79.955,137.949 69.609 C 137.771 63.117,138.447 59.800,140.947 54.895 C 149.553 38.013,171.593 33.982,185.584 46.733 C 191.839 52.434,205.140 64.859,205.140 65.002 C 205.140 65.098,205.768 65.083,206.536 64.969 C 208.963 64.606,215.314 64.689,217.232 65.108 C 218.167 65.313,219.843 65.530,220.956 65.592 C 228.980 66.034,236.461 71.012,240.534 78.620 L 241.453 80.335 244.022 81.605 C 259.563 89.282,268.975 91.482,287.542 91.774 L 295.866 91.905 295.866 98.489 L 295.866 105.073 285.866 104.965 C 266.860 104.760,255.490 102.088,239.297 94.020 L 235.153 91.955 235.114 92.737 C 235.064 93.702,234.449 97.420,234.188 98.332 C 234.082 98.701,234.077 98.952,234.177 98.890 C 234.278 98.829,236.225 99.681,238.506 100.786 C 240.786 101.890,242.744 102.793,242.857 102.793 C 243.046 102.793,245.842 106.087,249.402 110.503 C 251.380 112.956,251.857 113.656,251.674 113.838 C 251.588 113.924,251.817 113.873,252.183 113.726 C 253.659 113.130,257.391 113.336,259.010 114.103 C 262.621 115.815,263.761 118.665,262.405 122.596 L 261.779 124.410 262.301 125.389 C 262.699 126.137,262.806 126.646,262.752 127.542 C 262.713 128.188,262.746 128.741,262.825 128.771 C 262.979 128.831,268.427 137.091,269.825 139.384 L 270.676 140.778 272.564 137.261 C 274.767 133.156,277.195 128.868,277.816 127.982 C 278.056 127.641,278.162 127.389,278.053 127.424 C 277.905 127.470,272.260 119.378,271.228 117.639 C 271.130 117.474,271.512 117.452,272.471 117.566 C 276.437 118.037,282.558 118.212,295.140 118.212 L 309.050 118.212 309.050 98.446 L 309.050 78.680 298.380 78.810 C 277.722 79.063,269.293 77.938,257.880 73.407 C 251.679 70.944,251.219 70.668,249.776 68.545 C 242.973 58.529,231.616 52.508,219.553 52.520 C 216.721 52.523,215.699 52.606,212.849 53.070 L 211.955 53.215 203.352 45.244 C 198.620 40.861,193.944 36.592,192.961 35.759 C 186.572 30.346,177.491 26.636,169.669 26.244 C 168.345 26.178,167.011 26.097,166.704 26.065 C 166.397 26.032,164.888 26.079,163.352 26.169 M162.756 46.141 C 152.608 47.982,144.480 56.499,144.519 65.251 C 144.544 70.946,148.599 75.530,160.944 83.815 C 162.821 85.076,164.724 86.392,165.172 86.740 C 166.241 87.572,166.063 87.630,168.640 85.624 C 172.396 82.699,179.133 78.678,179.715 79.013 C 179.872 79.104,179.935 79.105,179.856 79.016 C 179.574 78.701,183.973 74.875,187.374 72.477 C 190.251 70.448,194.163 68.383,197.430 67.168 C 197.844 67.014,197.818 66.949,197.076 66.294 C 196.636 65.905,192.727 62.318,188.391 58.324 C 184.054 54.330,179.939 50.629,179.247 50.100 C 174.819 46.718,168.259 45.142,162.756 46.141 M92.131 60.724 C 92.842 60.769,93.948 60.768,94.589 60.723 C 95.230 60.678,94.648 60.642,93.296 60.642 C 91.944 60.643,91.420 60.680,92.131 60.724 M203.575 85.593 C 202.654 85.703,200.944 85.959,199.777 86.162 C 198.609 86.364,197.555 86.544,197.434 86.561 C 196.995 86.623,190.985 97.800,185.612 108.548 L 181.897 115.979 183.018 118.481 C 187.013 127.407,194.367 136.447,200.356 139.796 L 201.823 140.617 202.532 139.770 C 213.075 127.165,222.276 110.194,225.578 97.260 C 225.842 96.227,225.873 95.745,225.697 95.417 C 225.556 95.153,225.546 94.972,225.672 94.972 C 225.789 94.972,225.927 95.098,225.979 95.251 C 226.088 95.576,226.769 91.146,226.863 89.497 L 226.927 88.380 225.140 87.782 C 219.216 85.803,209.800 84.847,203.575 85.593 M235.384 88.156 C 235.385 89.140,235.424 89.514,235.471 88.989 C 235.518 88.463,235.518 87.658,235.470 87.201 C 235.422 86.743,235.383 87.173,235.384 88.156 M182.458 92.373 C 180.082 93.742,178.849 94.559,176.392 96.396 L 174.572 97.756 175.519 99.660 C 176.039 100.707,176.701 102.142,176.989 102.849 C 177.277 103.556,177.576 104.134,177.654 104.134 C 177.819 104.134,184.650 91.390,184.542 91.285 C 184.502 91.246,183.564 91.735,182.458 92.373 M232.337 104.962 C 230.864 112.327,218.507 134.594,211.731 142.095 L 210.980 142.926 213.367 142.641 C 217.496 142.150,220.567 141.193,225.363 138.903 C 226.961 138.140,228.344 137.497,228.437 137.474 C 228.530 137.451,229.096 136.501,229.696 135.364 C 231.872 131.234,234.640 127.176,237.531 123.877 L 239.323 121.831 239.091 119.966 C 238.664 116.530,236.547 111.188,233.924 106.927 C 233.243 105.821,232.639 104.767,232.582 104.584 C 232.524 104.398,232.417 104.563,232.337 104.962 M98.277 123.102 C 98.350 128.132,98.267 127.956,100.018 126.794 C 104.794 123.624,104.657 119.026,99.777 118.709 L 98.212 118.607 98.277 123.102 M111.228 122.214 C 110.241 126.659,105.651 131.377,99.832 133.927 L 98.212 134.637 98.272 139.609 L 98.333 144.581 103.330 144.581 L 108.328 144.581 108.839 143.296 C 110.006 140.360,112.422 135.858,114.627 132.514 L 115.437 131.285 113.477 131.357 L 111.517 131.428 111.457 126.440 C 111.421 123.512,111.327 121.767,111.228 122.214 M86.245 125.084 L 85.475 125.922 86.313 125.152 C 87.093 124.435,87.254 124.246,87.083 124.246 C 87.046 124.246,86.669 124.623,86.245 125.084 M244.570 126.313 L 243.687 127.263 244.637 126.379 C 245.520 125.558,245.689 125.363,245.520 125.363 C 245.484 125.363,245.056 125.791,244.570 126.313 M131.173 130.298 C 129.883 130.524,128.062 130.738,127.127 130.773 L 125.427 130.838 123.627 133.296 C 121.399 136.340,119.483 139.376,117.889 142.386 L 116.667 144.693 119.283 144.567 C 120.722 144.498,121.930 144.462,121.968 144.487 C 122.006 144.512,120.894 146.530,119.496 148.970 C 118.099 151.411,116.579 154.087,116.120 154.916 L 115.285 156.425 116.087 156.425 C 120.119 156.425,128.369 144.931,133.163 132.636 C 134.052 130.356,134.187 129.838,133.888 129.860 C 133.685 129.875,132.464 130.072,131.173 130.298 M331.161 132.682 L 330.391 133.520 331.229 132.749 C 332.009 132.033,332.170 131.844,331.999 131.844 C 331.962 131.844,331.585 132.221,331.161 132.682 M285.237 132.793 L 284.581 133.520 285.307 132.863 C 285.984 132.251,286.136 132.067,285.964 132.067 C 285.925 132.067,285.598 132.394,285.237 132.793 M174.017 133.332 C 173.777 133.737,171.234 139.806,169.351 144.469 C 167.596 148.817,167.409 149.411,167.733 149.609 C 169.157 150.479,169.594 150.928,170.555 152.514 C 171.828 154.614,175.866 162.631,175.866 163.058 C 175.866 163.825,179.440 161.769,183.808 158.492 L 186.563 156.424 185.045 153.240 C 181.200 145.176,178.608 140.268,175.690 135.531 C 174.252 133.196,174.166 133.083,174.017 133.332 M372.619 135.475 L 371.285 136.872 372.682 135.538 C 373.979 134.299,374.180 134.078,374.015 134.078 C 373.981 134.078,373.352 134.707,372.619 135.475 M282.074 135.018 C 281.947 135.177,281.670 135.659,281.458 136.089 L 281.072 136.872 281.925 136.037 C 282.526 135.450,282.708 135.133,282.542 134.966 C 282.375 134.800,282.237 134.815,282.074 135.018 M91.564 136.024 C 91.841 136.077,92.293 136.077,92.570 136.024 C 92.846 135.970,92.620 135.927,92.067 135.927 C 91.514 135.927,91.288 135.970,91.564 136.024 M283.275 142.575 C 281.182 144.760,278.090 148.522,277.000 150.213 C 276.613 150.813,276.618 150.830,277.838 153.006 C 278.513 154.210,279.827 156.654,280.758 158.436 L 282.451 161.676 282.459 160.112 C 282.483 155.519,283.888 149.639,286.194 144.487 L 286.986 142.718 286.310 141.416 L 285.633 140.115 283.275 142.575 M334.626 148.659 L 333.743 149.609 334.693 148.726 C 335.576 147.904,335.745 147.709,335.576 147.709 C 335.540 147.709,335.112 148.137,334.626 148.659 M135.694 149.497 C 135.694 149.927,135.740 150.103,135.796 149.888 C 135.853 149.673,135.853 149.321,135.796 149.106 C 135.740 148.891,135.694 149.067,135.694 149.497 M331.832 151.453 L 331.061 152.291 331.899 151.520 C 332.679 150.804,332.840 150.615,332.670 150.615 C 332.632 150.615,332.255 150.992,331.832 151.453 M290.964 153.061 C 289.598 158.882,289.996 162.850,292.422 167.597 C 293.856 170.404,293.924 171.048,292.909 172.204 C 291.776 173.494,290.091 173.973,288.636 173.420 L 288.080 173.209 288.611 174.410 C 288.903 175.070,289.699 176.720,290.379 178.077 C 293.829 184.956,295.654 190.127,295.789 193.408 L 295.881 195.642 295.320 194.600 C 293.676 191.544,289.840 191.160,283.387 193.406 C 273.584 196.819,257.416 206.797,253.684 211.739 C 250.205 216.346,250.689 221.809,254.714 223.372 C 255.513 223.682,255.496 223.686,253.966 223.563 C 249.457 223.201,248.399 222.628,236.358 214.037 C 219.210 201.803,213.033 196.320,204.561 185.810 C 198.757 178.611,189.782 164.455,190.249 163.238 C 190.311 163.077,189.730 163.423,188.958 164.007 C 186.330 165.997,180.028 169.972,178.914 170.343 C 178.765 170.393,179.026 171.672,179.610 173.759 C 180.789 177.972,181.319 180.381,182.004 184.648 C 182.497 187.717,182.715 189.695,183.129 194.860 L 183.263 196.536 179.620 200.145 C 174.284 205.432,171.432 207.828,163.128 214.005 C 151.378 222.745,150.755 223.102,146.484 223.532 L 145.370 223.644 146.228 223.227 C 148.433 222.154,149.228 219.466,148.291 216.250 C 147.348 213.013,142.609 208.837,134.190 203.825 C 121.870 196.491,114.122 194.680,112.026 198.644 L 111.508 199.623 111.508 198.573 C 111.508 197.131,112.071 194.531,112.885 192.216 C 114.740 186.938,128.351 158.963,129.370 158.333 C 129.465 158.275,129.410 157.545,129.248 156.711 C 129.087 155.878,128.951 154.724,128.947 154.147 C 128.934 152.573,128.740 152.672,126.769 155.267 C 120.507 163.507,116.285 166.135,111.323 164.878 C 110.811 164.748,100.546 187.092,99.579 190.443 C 96.725 200.327,99.143 210.408,106.118 217.715 C 108.448 220.155,109.431 220.872,116.339 225.170 C 132.493 235.220,133.528 235.732,139.116 236.443 C 147.497 237.509,154.806 236.068,160.380 232.251 C 162.421 230.854,174.838 221.727,177.318 219.801 C 184.728 214.048,191.337 207.556,196.979 200.490 L 198.283 198.857 201.866 202.582 C 209.099 210.102,215.834 215.518,234.622 228.920 C 242.918 234.838,246.210 236.142,254.247 236.691 C 260.233 237.101,264.578 236.506,269.411 234.616 C 271.851 233.662,294.473 220.316,297.170 218.240 C 305.210 212.049,309.358 203.228,308.991 193.102 C 308.791 187.590,307.610 183.902,302.900 174.078 C 301.516 171.190,299.658 167.268,298.773 165.363 C 296.998 161.543,292.207 152.009,291.746 151.378 C 291.489 151.027,291.393 151.234,290.964 153.061 M201.000 153.799 L 199.441 155.419 201.061 153.861 C 202.566 152.413,202.784 152.179,202.620 152.179 C 202.586 152.179,201.857 152.908,201.000 153.799 M335.638 156.145 L 333.743 158.101 335.698 156.206 C 336.774 155.164,337.654 154.284,337.654 154.251 C 337.654 154.088,337.397 154.329,335.638 156.145 M250.279 165.475 C 250.696 165.905,251.088 166.257,251.149 166.257 C 251.211 166.257,250.920 165.905,250.503 165.475 C 250.086 165.045,249.694 164.693,249.633 164.693 C 249.572 164.693,249.862 165.045,250.279 165.475 " stroke="none" fill="#d3cccc" fill-rule="evenodd">
</path>
<path id="path3" d="M213.352 72.783 C 213.628 72.837,214.081 72.837,214.358 72.783 C 214.634 72.730,214.408 72.687,213.855 72.687 C 213.302 72.687,213.075 72.730,213.352 72.783 M342.845 122.011 C 342.845 122.441,342.891 122.617,342.947 122.402 C 343.004 122.187,343.004 121.835,342.947 121.620 C 342.891 121.405,342.845 121.581,342.845 122.011 M321.333 124.413 L 320.112 125.698 321.397 124.477 C 322.590 123.342,322.784 123.128,322.618 123.128 C 322.583 123.128,322.005 123.707,321.333 124.413 M255.740 126.536 L 255.084 127.263 255.810 126.606 C 256.487 125.994,256.639 125.810,256.466 125.810 C 256.428 125.810,256.101 126.137,255.740 126.536 M106.804 129.330 L 106.034 130.168 106.872 129.398 C 107.651 128.681,107.812 128.492,107.642 128.492 C 107.604 128.492,107.227 128.869,106.804 129.330 M283.677 134.358 L 282.793 135.307 283.743 134.424 C 284.626 133.602,284.795 133.408,284.626 133.408 C 284.590 133.408,284.162 133.835,283.677 134.358 M358.492 150.056 C 358.495 150.547,358.540 150.722,358.594 150.444 C 358.647 150.166,358.645 149.764,358.589 149.550 C 358.533 149.337,358.490 149.564,358.492 150.056 M203.575 151.173 C 203.033 151.726,202.639 152.179,202.700 152.179 C 202.762 152.179,203.256 151.726,203.799 151.173 C 204.342 150.620,204.736 150.168,204.674 150.168 C 204.613 150.168,204.118 150.620,203.575 151.173 M350.237 152.514 C 350.238 153.251,350.280 153.526,350.330 153.124 C 350.379 152.723,350.378 152.119,350.327 151.784 C 350.276 151.448,350.236 151.777,350.237 152.514 M223.962 154.413 C 223.962 154.844,224.008 155.020,224.065 154.804 C 224.121 154.589,224.121 154.237,224.065 154.022 C 224.008 153.807,223.962 153.983,223.962 154.413 M290.108 158.212 C 290.108 158.642,290.154 158.818,290.210 158.603 C 290.266 158.388,290.266 158.036,290.210 157.821 C 290.154 157.606,290.108 157.782,290.108 158.212 M121.999 160.838 L 121.229 161.676 122.067 160.906 C 122.528 160.482,122.905 160.105,122.905 160.068 C 122.905 159.897,122.716 160.058,121.999 160.838 M240.098 161.397 L 239.441 162.123 240.168 161.467 C 240.845 160.855,240.997 160.670,240.824 160.670 C 240.785 160.670,240.459 160.997,240.098 161.397 M316.480 166.411 C 316.696 166.467,317.047 166.467,317.263 166.411 C 317.478 166.355,317.302 166.309,316.872 166.309 C 316.441 166.309,316.265 166.355,316.480 166.411 " stroke="none" fill="#7c7c7c" fill-rule="evenodd">
</path>
<path id="path4" d="M87.991 60.940 C 88.269 60.994,88.672 60.992,88.885 60.936 C 89.099 60.880,88.872 60.836,88.380 60.838 C 87.888 60.841,87.713 60.887,87.991 60.940 M228.594 71.117 C 229.520 72.104,229.721 72.281,229.721 72.114 C 229.721 72.078,229.243 71.600,228.659 71.052 L 227.598 70.056 228.594 71.117 M181.229 77.430 C 180.686 77.983,180.292 78.436,180.354 78.436 C 180.415 78.436,180.910 77.983,181.453 77.430 C 181.995 76.877,182.389 76.425,182.328 76.425 C 182.266 76.425,181.772 76.877,181.229 77.430 M227.103 86.369 C 227.105 86.983,227.148 87.208,227.199 86.868 C 227.251 86.529,227.249 86.026,227.196 85.751 C 227.143 85.476,227.101 85.754,227.103 86.369 M100.732 111.896 C 101.258 111.943,102.062 111.942,102.520 111.894 C 102.978 111.846,102.547 111.808,101.564 111.808 C 100.581 111.809,100.207 111.849,100.732 111.896 M254.919 113.454 C 255.197 113.508,255.599 113.506,255.813 113.450 C 256.026 113.394,255.799 113.350,255.307 113.352 C 254.816 113.355,254.641 113.401,254.919 113.454 M80.211 120.838 L 79.441 121.676 80.279 120.906 C 81.059 120.189,81.220 120.000,81.049 120.000 C 81.012 120.000,80.635 120.377,80.211 120.838 M138.089 123.743 L 137.318 124.581 138.156 123.811 C 138.936 123.094,139.097 122.905,138.927 122.905 C 138.889 122.905,138.512 123.282,138.089 123.743 M363.340 125.754 L 362.570 126.592 363.408 125.822 C 364.188 125.105,364.349 124.916,364.178 124.916 C 364.141 124.916,363.763 125.293,363.340 125.754 M369.040 129.441 L 368.156 130.391 369.106 129.508 C 369.989 128.686,370.159 128.492,369.989 128.492 C 369.953 128.492,369.526 128.919,369.040 129.441 M282.020 135.969 C 281.607 136.394,281.170 136.680,281.047 136.605 C 280.916 136.524,280.896 136.582,280.997 136.746 C 281.138 136.974,282.905 135.601,282.905 135.262 C 282.905 135.099,282.720 135.246,282.020 135.969 M283.905 141.732 L 282.123 143.575 283.966 141.793 C 285.679 140.137,285.912 139.888,285.749 139.888 C 285.715 139.888,284.886 140.718,283.905 141.732 M384.134 146.480 C 383.218 147.402,382.520 148.156,382.581 148.156 C 382.642 148.156,383.442 147.402,384.358 146.480 C 385.273 145.559,385.972 144.804,385.911 144.804 C 385.849 144.804,385.050 145.559,384.134 146.480 M192.734 150.670 L 190.279 153.184 192.793 150.730 C 194.176 149.380,195.307 148.249,195.307 148.216 C 195.307 148.055,195.013 148.335,192.734 150.670 M46.427 149.208 C 46.705 149.262,47.107 149.260,47.321 149.204 C 47.535 149.148,47.307 149.104,46.816 149.107 C 46.324 149.109,46.149 149.155,46.427 149.208 M388.034 150.447 L 387.151 151.397 388.101 150.513 C 388.623 150.027,389.050 149.600,389.050 149.564 C 389.050 149.395,388.856 149.564,388.034 150.447 M120.439 153.911 L 119.218 155.196 120.503 153.974 C 121.697 152.839,121.890 152.626,121.724 152.626 C 121.689 152.626,121.111 153.204,120.439 153.911 M239.431 153.799 L 238.547 154.749 239.497 153.865 C 240.380 153.044,240.550 152.849,240.381 152.849 C 240.344 152.849,239.917 153.277,239.431 153.799 M246.979 155.531 C 246.979 155.961,247.025 156.137,247.081 155.922 C 247.138 155.707,247.138 155.355,247.081 155.140 C 247.025 154.925,246.979 155.101,246.979 155.531 M51.899 157.026 C 52.115 157.082,52.466 157.082,52.682 157.026 C 52.897 156.969,52.721 156.923,52.291 156.923 C 51.860 156.923,51.684 156.969,51.899 157.026 M282.525 160.000 C 282.525 160.676,282.567 160.953,282.618 160.615 C 282.669 160.277,282.669 159.723,282.618 159.385 C 282.567 159.047,282.525 159.324,282.525 160.000 " stroke="none" fill="#747474" fill-rule="evenodd">
</path></g></svg>